0
SECTION
2
HEADER
9
$EXTMIN
10
0
20
0
9
$EXTMAX
10
750
20
975
0
ENDSEC
0
SECTION
2
TABLES
0
TABLE
2
VPORT
70
1
0
VPORT
2
*ACTIVE
70
0
10
0
20
0
11
1
21
1
12
0
22
0
13
0
23
0
14
1
24
1
15
0
25
0
16
0
26
0
36
1
17
0
27
0
37
0
40
300
41
2.12
42
50
43
0
44
0
50
0
51
0
71
0
72
100
73
1
74
1
75
0
76
0
77
0
78
0
0
ENDTAB
0
ENDSEC
0
SECTION
2
ENTITIES
0
POLYLINE
8
1
66
1
70
0
0
VERTEX
8
1
10
14.99
20
22.10
0
VERTEX
8
1
10
14.99
20
22.10
0
VERTEX
8
1
10
15.01
20
22.20
0
VERTEX
8
1
10
15.03
20
22.29
0
VERTEX
8
1
10
15.04
20
22.38
0
VERTEX
8
1
10
15.06
20
22.48
0
VERTEX
8
1
10
15.08
20
22.57
0
VERTEX
8
1
10
15.09
20
22.67
0
VERTEX
8
1
10
15.11
20
22.76
0
VERTEX
8
1
10
15.12
20
22.85
0
VERTEX
8
1
10
15.14
20
22.95
0
VERTEX
8
1
10
15.16
20
23.04
0
VERTEX
8
1
10
15.17
20
23.14
0
VERTEX
8
1
10
15.19
20
23.23
0
VERTEX
8
1
10
15.21
20
23.32
0
VERTEX
8
1
10
15.22
20
23.42
0
VERTEX
8
1
10
15.24
20
23.51
0
VERTEX
8
1
10
15.26
20
23.61
0
VERTEX
8
1
10
15.27
20
23.70
0
VERTEX
8
1
10
15.29
20
23.79
0
VERTEX
8
1
10
15.30
20
23.89
0
VERTEX
8
1
10
15.32
20
23.98
0
VERTEX
8
1
10
15.32
20
24.08
0
VERTEX
8
1
10
15.32
20
24.18
0
VERTEX
8
1
10
15.31
20
24.27
0
VERTEX
8
1
10
15.30
20
24.37
0
VERTEX
8
1
10
15.28
20
24.47
0
VERTEX
8
1
10
15.27
20
24.57
0
VERTEX
8
1
10
15.25
20
24.67
0
VERTEX
8
1
10
15.23
20
24.77
0
VERTEX
8
1
10
15.20
20
24.87
0
VERTEX
8
1
10
15.17
20
24.97
0
VERTEX
8
1
10
15.14
20
25.07
0
VERTEX
8
1
10
15.11
20
25.17
0
VERTEX
8
1
10
15.08
20
25.27
0
VERTEX
8
1
10
15.04
20
25.37
0
VERTEX
8
1
10
15.00
20
25.48
0
VERTEX
8
1
10
14.96
20
25.58
0
VERTEX
8
1
10
14.92
20
25.68
0
VERTEX
8
1
10
14.87
20
25.78
0
VERTEX
8
1
10
14.82
20
25.88
0
VERTEX
8
1
10
14.77
20
25.98
0
VERTEX
8
1
10
14.72
20
26.08
0
VERTEX
8
1
10
14.67
20
26.18
0
VERTEX
8
1
10
14.61
20
26.28
0
VERTEX
8
1
10
14.55
20
26.38
0
VERTEX
8
1
10
14.49
20
26.49
0
VERTEX
8
1
10
14.43
20
26.59
0
VERTEX
8
1
10
14.37
20
26.69
0
VERTEX
8
1
10
14.30
20
26.79
0
VERTEX
8
1
10
14.23
20
26.88
0
VERTEX
8
1
10
14.16
20
26.98
0
VERTEX
8
1
10
12.84
20
26.98
0
VERTEX
8
1
10
12.77
20
26.88
0
VERTEX
8
1
10
12.70
20
26.79
0
VERTEX
8
1
10
12.63
20
26.69
0
VERTEX
8
1
10
12.57
20
26.59
0
VERTEX
8
1
10
12.51
20
26.49
0
VERTEX
8
1
10
12.45
20
26.38
0
VERTEX
8
1
10
12.39
20
26.28
0
VERTEX
8
1
10
12.33
20
26.18
0
VERTEX
8
1
10
12.28
20
26.08
0
VERTEX
8
1
10
12.23
20
25.98
0
VERTEX
8
1
10
12.18
20
25.88
0
VERTEX
8
1
10
12.13
20
25.78
0
VERTEX
8
1
10
12.08
20
25.68
0
VERTEX
8
1
10
12.04
20
25.58
0
VERTEX
8
1
10
12.00
20
25.48
0
VERTEX
8
1
10
11.96
20
25.37
0
VERTEX
8
1
10
11.92
20
25.27
0
VERTEX
8
1
10
11.89
20
25.17
0
VERTEX
8
1
10
11.86
20
25.07
0
VERTEX
8
1
10
11.83
20
24.97
0
VERTEX
8
1
10
11.80
20
24.87
0
VERTEX
8
1
10
11.77
20
24.77
0
VERTEX
8
1
10
11.75
20
24.67
0
VERTEX
8
1
10
11.73
20
24.57
0
VERTEX
8
1
10
11.72
20
24.47
0
VERTEX
8
1
10
11.70
20
24.37
0
VERTEX
8
1
10
11.69
20
24.27
0
VERTEX
8
1
10
11.68
20
24.18
0
VERTEX
8
1
10
11.68
20
24.08
0
VERTEX
8
1
10
11.68
20
23.98
0
VERTEX
8
1
10
11.70
20
23.89
0
VERTEX
8
1
10
11.71
20
23.79
0
VERTEX
8
1
10
11.73
20
23.70
0
VERTEX
8
1
10
11.74
20
23.61
0
VERTEX
8
1
10
11.76
20
23.51
0
VERTEX
8
1
10
11.78
20
23.42
0
VERTEX
8
1
10
11.79
20
23.32
0
VERTEX
8
1
10
11.81
20
23.23
0
VERTEX
8
1
10
11.83
20
23.14
0
VERTEX
8
1
10
11.84
20
23.04
0
VERTEX
8
1
10
11.86
20
22.95
0
VERTEX
8
1
10
11.88
20
22.85
0
VERTEX
8
1
10
11.89
20
22.76
0
VERTEX
8
1
10
11.91
20
22.67
0
VERTEX
8
1
10
11.92
20
22.57
0
VERTEX
8
1
10
11.94
20
22.48
0
VERTEX
8
1
10
11.96
20
22.38
0
VERTEX
8
1
10
11.97
20
22.29
0
VERTEX
8
1
10
11.99
20
22.20
0
VERTEX
8
1
10
12.01
20
22.10
0
VERTEX
8
1
10
9.65
20
21.34
0
VERTEX
8
1
10
9.61
20
21.42
0
VERTEX
8
1
10
9.57
20
21.51
0
VERTEX
8
1
10
9.53
20
21.59
0
VERTEX
8
1
10
9.48
20
21.68
0
VERTEX
8
1
10
9.44
20
21.76
0
VERTEX
8
1
10
9.40
20
21.85
0
VERTEX
8
1
10
9.36
20
21.94
0
VERTEX
8
1
10
9.32
20
22.02
0
VERTEX
8
1
10
9.27
20
22.11
0
VERTEX
8
1
10
9.23
20
22.19
0
VERTEX
8
1
10
9.19
20
22.28
0
VERTEX
8
1
10
9.15
20
22.36
0
VERTEX
8
1
10
9.11
20
22.45
0
VERTEX
8
1
10
9.06
20
22.54
0
VERTEX
8
1
10
9.02
20
22.62
0
VERTEX
8
1
10
8.98
20
22.71
0
VERTEX
8
1
10
8.94
20
22.79
0
VERTEX
8
1
10
8.90
20
22.88
0
VERTEX
8
1
10
8.85
20
22.96
0
VERTEX
8
1
10
8.81
20
23.05
0
VERTEX
8
1
10
8.75
20
23.13
0
VERTEX
8
1
10
8.69
20
23.20
0
VERTEX
8
1
10
8.63
20
23.28
0
VERTEX
8
1
10
8.56
20
23.35
0
VERTEX
8
1
10
8.50
20
23.42
0
VERTEX
8
1
10
8.42
20
23.49
0
VERTEX
8
1
10
8.35
20
23.56
0
VERTEX
8
1
10
8.27
20
23.63
0
VERTEX
8
1
10
8.19
20
23.70
0
VERTEX
8
1
10
8.11
20
23.76
0
VERTEX
8
1
10
8.03
20
23.83
0
VERTEX
8
1
10
7.94
20
23.89
0
VERTEX
8
1
10
7.86
20
23.95
0
VERTEX
8
1
10
7.77
20
24.01
0
VERTEX
8
1
10
7.67
20
24.07
0
VERTEX
8
1
10
7.58
20
24.13
0
VERTEX
8
1
10
7.49
20
24.18
0
VERTEX
8
1
10
7.39
20
24.24
0
VERTEX
8
1
10
7.29
20
24.29
0
VERTEX
8
1
10
7.19
20
24.35
0
VERTEX
8
1
10
7.09
20
24.40
0
VERTEX
8
1
10
6.99
20
24.45
0
VERTEX
8
1
10
6.88
20
24.49
0
VERTEX
8
1
10
6.78
20
24.54
0
VERTEX
8
1
10
6.67
20
24.59
0
VERTEX
8
1
10
6.56
20
24.63
0
VERTEX
8
1
10
6.45
20
24.68
0
VERTEX
8
1
10
6.34
20
24.72
0
VERTEX
8
1
10
6.22
20
24.76
0
VERTEX
8
1
10
6.11
20
24.80
0
VERTEX
8
1
10
5.04
20
24.02
0
VERTEX
8
1
10
5.04
20
23.90
0
VERTEX
8
1
10
5.04
20
23.78
0
VERTEX
8
1
10
5.05
20
23.66
0
VERTEX
8
1
10
5.06
20
23.54
0
VERTEX
8
1
10
5.07
20
23.42
0
VERTEX
8
1
10
5.08
20
23.31
0
VERTEX
8
1
10
5.09
20
23.19
0
VERTEX
8
1
10
5.10
20
23.08
0
VERTEX
8
1
10
5.12
20
22.96
0
VERTEX
8
1
10
5.13
20
22.85
0
VERTEX
8
1
10
5.15
20
22.74
0
VERTEX
8
1
10
5.17
20
22.63
0
VERTEX
8
1
10
5.20
20
22.52
0
VERTEX
8
1
10
5.22
20
22.41
0
VERTEX
8
1
10
5.25
20
22.31
0
VERTEX
8
1
10
5.27
20
22.20
0
VERTEX
8
1
10
5.30
20
22.10
0
VERTEX
8
1
10
5.34
20
22.00
0
VERTEX
8
1
10
5.37
20
21.90
0
VERTEX
8
1
10
5.40
20
21.80
0
VERTEX
8
1
10
5.44
20
21.70
0
VERTEX
8
1
10
5.48
20
21.60
0
VERTEX
8
1
10
5.52
20
21.51
0
VERTEX
8
1
10
5.56
20
21.42
0
VERTEX
8
1
10
5.61
20
21.33
0
VERTEX
8
1
10
5.65
20
21.24
0
VERTEX
8
1
10
5.70
20
21.15
0
VERTEX
8
1
10
5.76
20
21.07
0
VERTEX
8
1
10
5.81
20
20.99
0
VERTEX
8
1
10
5.87
20
20.91
0
VERTEX
8
1
10
5.93
20
20.84
0
VERTEX
8
1
10
6.00
20
20.78
0
VERTEX
8
1
10
6.07
20
20.71
0
VERTEX
8
1
10
6.14
20
20.64
0
VERTEX
8
1
10
6.21
20
20.58
0
VERTEX
8
1
10
6.28
20
20.51
0
VERTEX
8
1
10
6.35
20
20.44
0
VERTEX
8
1
10
6.41
20
20.38
0
VERTEX
8
1
10
6.48
20
20.31
0
VERTEX
8
1
10
6.55
20
20.24
0
VERTEX
8
1
10
6.62
20
20.18
0
VERTEX
8
1
10
6.69
20
20.11
0
VERTEX
8
1
10
6.76
20
20.05
0
VERTEX
8
1
10
6.82
20
19.98
0
VERTEX
8
1
10
6.89
20
19.91
0
VERTEX
8
1
10
6.96
20
19.85
0
VERTEX
8
1
10
7.03
20
19.78
0
VERTEX
8
1
10
7.10
20
19.71
0
VERTEX
8
1
10
7.17
20
19.65
0
VERTEX
8
1
10
7.24
20
19.58
0
VERTEX
8
1
10
5.78
20
17.58
0
VERTEX
8
1
10
5.70
20
17.62
0
VERTEX
8
1
10
5.61
20
17.67
0
VERTEX
8
1
10
5.53
20
17.71
0
VERTEX
8
1
10
5.44
20
17.76
0
VERTEX
8
1
10
5.36
20
17.80
0
VERTEX
8
1
10
5.28
20
17.85
0
VERTEX
8
1
10
5.19
20
17.89
0
VERTEX
8
1
10
5.11
20
17.94
0
VERTEX
8
1
10
5.02
20
17.98
0
VERTEX
8
1
10
4.94
20
18.02
0
VERTEX
8
1
10
4.85
20
18.07
0
VERTEX
8
1
10
4.77
20
18.11
0
VERTEX
8
1
10
4.68
20
18.16
0
VERTEX
8
1
10
4.60
20
18.20
0
VERTEX
8
1
10
4.52
20
18.25
0
VERTEX
8
1
10
4.43
20
18.29
0
VERTEX
8
1
10
4.35
20
18.34
0
VERTEX
8
1
10
4.26
20
18.38
0
VERTEX
8
1
10
4.18
20
18.43
0
VERTEX
8
1
10
4.09
20
18.47
0
VERTEX
8
1
10
4.00
20
18.50
0
VERTEX
8
1
10
3.91
20
18.53
0
VERTEX
8
1
10
3.81
20
18.55
0
VERTEX
8
1
10
3.72
20
18.57
0
VERTEX
8
1
10
3.62
20
18.59
0
VERTEX
8
1
10
3.52
20
18.60
0
VERTEX
8
1
10
3.42
20
18.61
0
VERTEX
8
1
10
3.32
20
18.62
0
VERTEX
8
1
10
3.21
20
18.63
0
VERTEX
8
1
10
3.11
20
18.64
0
VERTEX
8
1
10
3.00
20
18.64
0
VERTEX
8
1
10
2.90
20
18.64
0
VERTEX
8
1
10
2.79
20
18.64
0
VERTEX
8
1
10
2.68
20
18.63
0
VERTEX
8
1
10
2.57
20
18.63
0
VERTEX
8
1
10
2.47
20
18.62
0
VERTEX
8
1
10
2.36
20
18.61
0
VERTEX
8
1
10
2.25
20
18.60
0
VERTEX
8
1
10
2.13
20
18.58
0
VERTEX
8
1
10
2.02
20
18.57
0
VERTEX
8
1
10
1.91
20
18.55
0
VERTEX
8
1
10
1.80
20
18.53
0
VERTEX
8
1
10
1.68
20
18.51
0
VERTEX
8
1
10
1.57
20
18.48
0
VERTEX
8
1
10
1.46
20
18.46
0
VERTEX
8
1
10
1.34
20
18.43
0
VERTEX
8
1
10
1.23
20
18.40
0
VERTEX
8
1
10
1.11
20
18.37
0
VERTEX
8
1
10
1.00
20
18.33
0
VERTEX
8
1
10
0.88
20
18.30
0
VERTEX
8
1
10
0.47
20
17.04
0
VERTEX
8
1
10
0.54
20
16.94
0
VERTEX
8
1
10
0.62
20
16.85
0
VERTEX
8
1
10
0.69
20
16.75
0
VERTEX
8
1
10
0.77
20
16.66
0
VERTEX
8
1
10
0.84
20
16.57
0
VERTEX
8
1
10
0.92
20
16.48
0
VERTEX
8
1
10
1.00
20
16.40
0
VERTEX
8
1
10
1.08
20
16.31
0
VERTEX
8
1
10
1.16
20
16.23
0
VERTEX
8
1
10
1.24
20
16.15
0
VERTEX
8
1
10
1.32
20
16.07
0
VERTEX
8
1
10
1.40
20
15.99
0
VERTEX
8
1
10
1.48
20
15.92
0
VERTEX
8
1
10
1.56
20
15.84
0
VERTEX
8
1
10
1.65
20
15.77
0
VERTEX
8
1
10
1.73
20
15.71
0
VERTEX
8
1
10
1.82
20
15.64
0
VERTEX
8
1
10
1.90
20
15.57
0
VERTEX
8
1
10
1.99
20
15.51
0
VERTEX
8
1
10
2.07
20
15.45
0
VERTEX
8
1
10
2.16
20
15.40
0
VERTEX
8
1
10
2.25
20
15.34
0
VERTEX
8
1
10
2.34
20
15.29
0
VERTEX
8
1
10
2.43
20
15.24
0
VERTEX
8
1
10
2.51
20
15.19
0
VERTEX
8
1
10
2.60
20
15.15
0
VERTEX
8
1
10
2.69
20
15.11
0
VERTEX
8
1
10
2.79
20
15.07
0
VERTEX
8
1
10
2.88
20
15.04
0
VERTEX
8
1
10
2.97
20
15.01
0
VERTEX
8
1
10
3.06
20
14.99
0
VERTEX
8
1
10
3.16
20
14.98
0
VERTEX
8
1
10
3.25
20
14.97
0
VERTEX
8
1
10
3.35
20
14.95
0
VERTEX
8
1
10
3.44
20
14.94
0
VERTEX
8
1
10
3.54
20
14.93
0
VERTEX
8
1
10
3.63
20
14.91
0
VERTEX
8
1
10
3.72
20
14.90
0
VERTEX
8
1
10
3.82
20
14.89
0
VERTEX
8
1
10
3.91
20
14.87
0
VERTEX
8
1
10
4.01
20
14.86
0
VERTEX
8
1
10
4.10
20
14.85
0
VERTEX
8
1
10
4.20
20
14.83
0
VERTEX
8
1
10
4.29
20
14.82
0
VERTEX
8
1
10
4.39
20
14.80
0
VERTEX
8
1
10
4.48
20
14.79
0
VERTEX
8
1
10
4.57
20
14.78
0
VERTEX
8
1
10
4.67
20
14.76
0
VERTEX
8
1
10
4.76
20
14.75
0
VERTEX
8
1
10
4.86
20
14.74
0
VERTEX
8
1
10
4.86
20
12.26
0
VERTEX
8
1
10
4.76
20
12.25
0
VERTEX
8
1
10
4.67
20
12.24
0
VERTEX
8
1
10
4.57
20
12.22
0
VERTEX
8
1
10
4.48
20
12.21
0
VERTEX
8
1
10
4.39
20
12.20
0
VERTEX
8
1
10
4.29
20
12.18
0
VERTEX
8
1
10
4.20
20
12.17
0
VERTEX
8
1
10
4.10
20
12.15
0
VERTEX
8
1
10
4.01
20
12.14
0
VERTEX
8
1
10
3.91
20
12.13
0
VERTEX
8
1
10
3.82
20
12.11
0
VERTEX
8
1
10
3.72
20
12.10
0
VERTEX
8
1
10
3.63
20
12.09
0
VERTEX
8
1
10
3.54
20
12.07
0
VERTEX
8
1
10
3.44
20
12.06
0
VERTEX
8
1
10
3.35
20
12.05
0
VERTEX
8
1
10
3.25
20
12.03
0
VERTEX
8
1
10
3.16
20
12.02
0
VERTEX
8
1
10
3.06
20
12.01
0
VERTEX
8
1
10
2.97
20
11.99
0
VERTEX
8
1
10
2.88
20
11.96
0
VERTEX
8
1
10
2.79
20
11.93
0
VERTEX
8
1
10
2.69
20
11.89
0
VERTEX
8
1
10
2.60
20
11.85
0
VERTEX
8
1
10
2.51
20
11.81
0
VERTEX
8
1
10
2.43
20
11.76
0
VERTEX
8
1
10
2.34
20
11.71
0
VERTEX
8
1
10
2.25
20
11.66
0
VERTEX
8
1
10
2.16
20
11.60
0
VERTEX
8
1
10
2.07
20
11.55
0
VERTEX
8
1
10
1.99
20
11.49
0
VERTEX
8
1
10
1.90
20
11.43
0
VERTEX
8
1
10
1.82
20
11.36
0
VERTEX
8
1
10
1.73
20
11.29
0
VERTEX
8
1
10
1.65
20
11.23
0
VERTEX
8
1
10
1.56
20
11.16
0
VERTEX
8
1
10
1.48
20
11.08
0
VERTEX
8
1
10
1.40
20
11.01
0
VERTEX
8
1
10
1.32
20
10.93
0
VERTEX
8
1
10
1.24
20
10.85
0
VERTEX
8
1
10
1.16
20
10.77
0
VERTEX
8
1
10
1.08
20
10.69
0
VERTEX
8
1
10
1.00
20
10.60
0
VERTEX
8
1
10
0.92
20
10.52
0
VERTEX
8
1
10
0.84
20
10.43
0
VERTEX
8
1
10
0.77
20
10.34
0
VERTEX
8
1
10
0.69
20
10.25
0
VERTEX
8
1
10
0.62
20
10.15
0
VERTEX
8
1
10
0.54
20
10.06
0
VERTEX
8
1
10
0.47
20
9.96
0
VERTEX
8
1
10
0.88
20
8.70
0
VERTEX
8
1
10
1.00
20
8.67
0
VERTEX
8
1
10
1.11
20
8.63
0
VERTEX
8
1
10
1.23
20
8.60
0
VERTEX
8
1
10
1.34
20
8.57
0
VERTEX
8
1
10
1.46
20
8.54
0
VERTEX
8
1
10
1.57
20
8.52
0
VERTEX
8
1
10
1.68
20
8.49
0
VERTEX
8
1
10
1.80
20
8.47
0
VERTEX
8
1
10
1.91
20
8.45
0
VERTEX
8
1
10
2.02
20
8.43
0
VERTEX
8
1
10
2.13
20
8.42
0
VERTEX
8
1
10
2.25
20
8.40
0
VERTEX
8
1
10
2.36
20
8.39
0
VERTEX
8
1
10
2.47
20
8.38
0
VERTEX
8
1
10
2.57
20
8.37
0
VERTEX
8
1
10
2.68
20
8.37
0
VERTEX
8
1
10
2.79
20
8.36
0
VERTEX
8
1
10
2.90
20
8.36
0
VERTEX
8
1
10
3.00
20
8.36
0
VERTEX
8
1
10
3.11
20
8.36
0
VERTEX
8
1
10
3.21
20
8.37
0
VERTEX
8
1
10
3.32
20
8.38
0
VERTEX
8
1
10
3.42
20
8.39
0
VERTEX
8
1
10
3.52
20
8.40
0
VERTEX
8
1
10
3.62
20
8.41
0
VERTEX
8
1
10
3.72
20
8.43
0
VERTEX
8
1
10
3.81
20
8.45
0
VERTEX
8
1
10
3.91
20
8.47
0
VERTEX
8
1
10
4.00
20
8.50
0
VERTEX
8
1
10
4.09
20
8.53
0
VERTEX
8
1
10
4.18
20
8.57
0
VERTEX
8
1
10
4.26
20
8.62
0
VERTEX
8
1
10
4.35
20
8.66
0
VERTEX
8
1
10
4.43
20
8.71
0
VERTEX
8
1
10
4.52
20
8.75
0
VERTEX
8
1
10
4.60
20
8.80
0
VERTEX
8
1
10
4.68
20
8.84
0
VERTEX
8
1
10
4.77
20
8.89
0
VERTEX
8
1
10
4.85
20
8.93
0
VERTEX
8
1
10
4.94
20
8.98
0
VERTEX
8
1
10
5.02
20
9.02
0
VERTEX
8
1
10
5.11
20
9.06
0
VERTEX
8
1
10
5.19
20
9.11
0
VERTEX
8
1
10
5.28
20
9.15
0
VERTEX
8
1
10
5.36
20
9.20
0
VERTEX
8
1
10
5.44
20
9.24
0
VERTEX
8
1
10
5.53
20
9.29
0
VERTEX
8
1
10
5.61
20
9.33
0
VERTEX
8
1
10
5.70
20
9.38
0
VERTEX
8
1
10
5.78
20
9.42
0
VERTEX
8
1
10
7.24
20
7.42
0
VERTEX
8
1
10
7.17
20
7.35
0
VERTEX
8
1
10
7.10
20
7.29
0
VERTEX
8
1
10
7.03
20
7.22
0
VERTEX
8
1
10
6.96
20
7.15
0
VERTEX
8
1
10
6.89
20
7.09
0
VERTEX
8
1
10
6.82
20
7.02
0
VERTEX
8
1
10
6.76
20
6.95
0
VERTEX
8
1
10
6.69
20
6.89
0
VERTEX
8
1
10
6.62
20
6.82
0
VERTEX
8
1
10
6.55
20
6.76
0
VERTEX
8
1
10
6.48
20
6.69
0
VERTEX
8
1
10
6.41
20
6.62
0
VERTEX
8
1
10
6.35
20
6.56
0
VERTEX
8
1
10
6.28
20
6.49
0
VERTEX
8
1
10
6.21
20
6.42
0
VERTEX
8
1
10
6.14
20
6.36
0
VERTEX
8
1
10
6.07
20
6.29
0
VERTEX
8
1
10
6.00
20
6.22
0
VERTEX
8
1
10
5.93
20
6.16
0
VERTEX
8
1
10
5.87
20
6.09
0
VERTEX
8
1
10
5.81
20
6.01
0
VERTEX
8
1
10
5.76
20
5.93
0
VERTEX
8
1
10
5.70
20
5.85
0
VERTEX
8
1
10
5.65
20
5.76
0
VERTEX
8
1
10
5.61
20
5.67
0
VERTEX
8
1
10
5.56
20
5.58
0
VERTEX
8
1
10
5.52
20
5.49
0
VERTEX
8
1
10
5.48
20
5.40
0
VERTEX
8
1
10
5.44
20
5.30
0
VERTEX
8
1
10
5.40
20
5.20
0
VERTEX
8
1
10
5.37
20
5.10
0
VERTEX
8
1
10
5.34
20
5.00
0
VERTEX
8
1
10
5.30
20
4.90
0
VERTEX
8
1
10
5.27
20
4.80
0
VERTEX
8
1
10
5.25
20
4.69
0
VERTEX
8
1
10
5.22
20
4.59
0
VERTEX
8
1
10
5.20
20
4.48
0
VERTEX
8
1
10
5.17
20
4.37
0
VERTEX
8
1
10
5.15
20
4.26
0
VERTEX
8
1
10
5.13
20
4.15
0
VERTEX
8
1
10
5.12
20
4.04
0
VERTEX
8
1
10
5.10
20
3.92
0
VERTEX
8
1
10
5.09
20
3.81
0
VERTEX
8
1
10
5.08
20
3.69
0
VERTEX
8
1
10
5.07
20
3.58
0
VERTEX
8
1
10
5.06
20
3.46
0
VERTEX
8
1
10
5.05
20
3.34
0
VERTEX
8
1
10
5.04
20
3.22
0
VERTEX
8
1
10
5.04
20
3.10
0
VERTEX
8
1
10
5.04
20
2.98
0
VERTEX
8
1
10
6.11
20
2.20
0
VERTEX
8
1
10
6.22
20
2.24
0
VERTEX
8
1
10
6.34
20
2.28
0
VERTEX
8
1
10
6.45
20
2.32
0
VERTEX
8
1
10
6.56
20
2.37
0
VERTEX
8
1
10
6.67
20
2.41
0
VERTEX
8
1
10
6.78
20
2.46
0
VERTEX
8
1
10
6.88
20
2.51
0
VERTEX
8
1
10
6.99
20
2.55
0
VERTEX
8
1
10
7.09
20
2.60
0
VERTEX
8
1
10
7.19
20
2.65
0
VERTEX
8
1
10
7.29
20
2.71
0
VERTEX
8
1
10
7.39
20
2.76
0
VERTEX
8
1
10
7.49
20
2.82
0
VERTEX
8
1
10
7.58
20
2.87
0
VERTEX
8
1
10
7.67
20
2.93
0
VERTEX
8
1
10
7.77
20
2.99
0
VERTEX
8
1
10
7.86
20
3.05
0
VERTEX
8
1
10
7.94
20
3.11
0
VERTEX
8
1
10
8.03
20
3.17
0
VERTEX
8
1
10
8.11
20
3.24
0
VERTEX
8
1
10
8.19
20
3.30
0
VERTEX
8
1
10
8.27
20
3.37
0
VERTEX
8
1
10
8.35
20
3.44
0
VERTEX
8
1
10
8.42
20
3.51
0
VERTEX
8
1
10
8.50
20
3.58
0
VERTEX
8
1
10
8.56
20
3.65
0
VERTEX
8
1
10
8.63
20
3.72
0
VERTEX
8
1
10
8.69
20
3.80
0
VERTEX
8
1
10
8.75
20
3.87
0
VERTEX
8
1
10
8.81
20
3.95
0
VERTEX
8
1
10
8.85
20
4.04
0
VERTEX
8
1
10
8.90
20
4.12
0
VERTEX
8
1
10
8.94
20
4.21
0
VERTEX
8
1
10
8.98
20
4.29
0
VERTEX
8
1
10
9.02
20
4.38
0
VERTEX
8
1
10
9.06
20
4.46
0
VERTEX
8
1
10
9.11
20
4.55
0
VERTEX
8
1
10
9.15
20
4.64
0
VERTEX
8
1
10
9.19
20
4.72
0
VERTEX
8
1
10
9.23
20
4.81
0
VERTEX
8
1
10
9.27
20
4.89
0
VERTEX
8
1
10
9.32
20
4.98
0
VERTEX
8
1
10
9.36
20
5.06
0
VERTEX
8
1
10
9.40
20
5.15
0
VERTEX
8
1
10
9.44
20
5.24
0
VERTEX
8
1
10
9.48
20
5.32
0
VERTEX
8
1
10
9.53
20
5.41
0
VERTEX
8
1
10
9.57
20
5.49
0
VERTEX
8
1
10
9.61
20
5.58
0
VERTEX
8
1
10
9.65
20
5.66
0
VERTEX
8
1
10
12.01
20
4.90
0
VERTEX
8
1
10
11.99
20
4.80
0
VERTEX
8
1
10
11.97
20
4.71
0
VERTEX
8
1
10
11.96
20
4.62
0
VERTEX
8
1
10
11.94
20
4.52
0
VERTEX
8
1
10
11.92
20
4.43
0
VERTEX
8
1
10
11.91
20
4.33
0
VERTEX
8
1
10
11.89
20
4.24
0
VERTEX
8
1
10
11.88
20
4.15
0
VERTEX
8
1
10
11.86
20
4.05
0
VERTEX
8
1
10
11.84
20
3.96
0
VERTEX
8
1
10
11.83
20
3.86
0
VERTEX
8
1
10
11.81
20
3.77
0
VERTEX
8
1
10
11.79
20
3.68
0
VERTEX
8
1
10
11.78
20
3.58
0
VERTEX
8
1
10
11.76
20
3.49
0
VERTEX
8
1
10
11.74
20
3.39
0
VERTEX
8
1
10
11.73
20
3.30
0
VERTEX
8
1
10
11.71
20
3.21
0
VERTEX
8
1
10
11.70
20
3.11
0
VERTEX
8
1
10
11.68
20
3.02
0
VERTEX
8
1
10
11.68
20
2.92
0
VERTEX
8
1
10
11.68
20
2.82
0
VERTEX
8
1
10
11.69
20
2.73
0
VERTEX
8
1
10
11.70
20
2.63
0
VERTEX
8
1
10
11.72
20
2.53
0
VERTEX
8
1
10
11.73
20
2.43
0
VERTEX
8
1
10
11.75
20
2.33
0
VERTEX
8
1
10
11.77
20
2.23
0
VERTEX
8
1
10
11.80
20
2.13
0
VERTEX
8
1
10
11.83
20
2.03
0
VERTEX
8
1
10
11.86
20
1.93
0
VERTEX
8
1
10
11.89
20
1.83
0
VERTEX
8
1
10
11.92
20
1.73
0
VERTEX
8
1
10
11.96
20
1.63
0
VERTEX
8
1
10
12.00
20
1.52
0
VERTEX
8
1
10
12.04
20
1.42
0
VERTEX
8
1
10
12.08
20
1.32
0
VERTEX
8
1
10
12.13
20
1.22
0
VERTEX
8
1
10
12.18
20
1.12
0
VERTEX
8
1
10
12.23
20
1.02
0
VERTEX
8
1
10
12.28
20
0.92
0
VERTEX
8
1
10
12.33
20
0.82
0
VERTEX
8
1
10
12.39
20
0.72
0
VERTEX
8
1
10
12.45
20
0.62
0
VERTEX
8
1
10
12.51
20
0.51
0
VERTEX
8
1
10
12.57
20
0.41
0
VERTEX
8
1
10
12.63
20
0.31
0
VERTEX
8
1
10
12.70
20
0.21
0
VERTEX
8
1
10
12.77
20
0.12
0
VERTEX
8
1
10
12.84
20
0.02
0
VERTEX
8
1
10
14.16
20
0.02
0
VERTEX
8
1
10
14.23
20
0.12
0
VERTEX
8
1
10
14.30
20
0.21
0
VERTEX
8
1
10
14.37
20
0.31
0
VERTEX
8
1
10
14.43
20
0.41
0
VERTEX
8
1
10
14.49
20
0.51
0
VERTEX
8
1
10
14.55
20
0.62
0
VERTEX
8
1
10
14.61
20
0.72
0
VERTEX
8
1
10
14.67
20
0.82
0
VERTEX
8
1
10
14.72
20
0.92
0
VERTEX
8
1
10
14.77
20
1.02
0
VERTEX
8
1
10
14.82
20
1.12
0
VERTEX
8
1
10
14.87
20
1.22
0
VERTEX
8
1
10
14.92
20
1.32
0
VERTEX
8
1
10
14.96
20
1.42
0
VERTEX
8
1
10
15.00
20
1.52
0
VERTEX
8
1
10
15.04
20
1.63
0
VERTEX
8
1
10
15.08
20
1.73
0
VERTEX
8
1
10
15.11
20
1.83
0
VERTEX
8
1
10
15.14
20
1.93
0
VERTEX
8
1
10
15.17
20
2.03
0
VERTEX
8
1
10
15.20
20
2.13
0
VERTEX
8
1
10
15.23
20
2.23
0
VERTEX
8
1
10
15.25
20
2.33
0
VERTEX
8
1
10
15.27
20
2.43
0
VERTEX
8
1
10
15.28
20
2.53
0
VERTEX
8
1
10
15.30
20
2.63
0
VERTEX
8
1
10
15.31
20
2.73
0
VERTEX
8
1
10
15.32
20
2.82
0
VERTEX
8
1
10
15.32
20
2.92
0
VERTEX
8
1
10
15.32
20
3.02
0
VERTEX
8
1
10
15.30
20
3.11
0
VERTEX
8
1
10
15.29
20
3.21
0
VERTEX
8
1
10
15.27
20
3.30
0
VERTEX
8
1
10
15.26
20
3.39
0
VERTEX
8
1
10
15.24
20
3.49
0
VERTEX
8
1
10
15.22
20
3.58
0
VERTEX
8
1
10
15.21
20
3.68
0
VERTEX
8
1
10
15.19
20
3.77
0
VERTEX
8
1
10
15.17
20
3.86
0
VERTEX
8
1
10
15.16
20
3.96
0
VERTEX
8
1
10
15.14
20
4.05
0
VERTEX
8
1
10
15.12
20
4.15
0
VERTEX
8
1
10
15.11
20
4.24
0
VERTEX
8
1
10
15.09
20
4.33
0
VERTEX
8
1
10
15.08
20
4.43
0
VERTEX
8
1
10
15.06
20
4.52
0
VERTEX
8
1
10
15.04
20
4.62
0
VERTEX
8
1
10
15.03
20
4.71
0
VERTEX
8
1
10
15.01
20
4.80
0
VERTEX
8
1
10
14.99
20
4.90
0
VERTEX
8
1
10
17.35
20
5.66
0
VERTEX
8
1
10
17.39
20
5.58
0
VERTEX
8
1
10
17.43
20
5.49
0
VERTEX
8
1
10
17.47
20
5.41
0
VERTEX
8
1
10
17.52
20
5.32
0
VERTEX
8
1
10
17.56
20
5.24
0
VERTEX
8
1
10
17.60
20
5.15
0
VERTEX
8
1
10
17.64
20
5.06
0
VERTEX
8
1
10
17.68
20
4.98
0
VERTEX
8
1
10
17.73
20
4.89
0
VERTEX
8
1
10
17.77
20
4.81
0
VERTEX
8
1
10
17.81
20
4.72
0
VERTEX
8
1
10
17.85
20
4.64
0
VERTEX
8
1
10
17.89
20
4.55
0
VERTEX
8
1
10
17.94
20
4.46
0
VERTEX
8
1
10
17.98
20
4.38
0
VERTEX
8
1
10
18.02
20
4.29
0
VERTEX
8
1
10
18.06
20
4.21
0
VERTEX
8
1
10
18.10
20
4.12
0
VERTEX
8
1
10
18.15
20
4.04
0
VERTEX
8
1
10
18.19
20
3.95
0
VERTEX
8
1
10
18.25
20
3.87
0
VERTEX
8
1
10
18.31
20
3.80
0
VERTEX
8
1
10
18.37
20
3.72
0
VERTEX
8
1
10
18.44
20
3.65
0
VERTEX
8
1
10
18.50
20
3.58
0
VERTEX
8
1
10
18.58
20
3.51
0
VERTEX
8
1
10
18.65
20
3.44
0
VERTEX
8
1
10
18.73
20
3.37
0
VERTEX
8
1
10
18.81
20
3.30
0
VERTEX
8
1
10
18.89
20
3.24
0
VERTEX
8
1
10
18.97
20
3.17
0
VERTEX
8
1
10
19.06
20
3.11
0
VERTEX
8
1
10
19.14
20
3.05
0
VERTEX
8
1
10
19.23
20
2.99
0
VERTEX
8
1
10
19.33
20
2.93
0
VERTEX
8
1
10
19.42
20
2.87
0
VERTEX
8
1
10
19.51
20
2.82
0
VERTEX
8
1
10
19.61
20
2.76
0
VERTEX
8
1
10
19.71
20
2.71
0
VERTEX
8
1
10
19.81
20
2.65
0
VERTEX
8
1
10
19.91
20
2.60
0
VERTEX
8
1
10
20.01
20
2.55
0
VERTEX
8
1
10
20.12
20
2.51
0
VERTEX
8
1
10
20.22
20
2.46
0
VERTEX
8
1
10
20.33
20
2.41
0
VERTEX
8
1
10
20.44
20
2.37
0
VERTEX
8
1
10
20.55
20
2.32
0
VERTEX
8
1
10
20.66
20
2.28
0
VERTEX
8
1
10
20.78
20
2.24
0
VERTEX
8
1
10
20.89
20
2.20
0
VERTEX
8
1
10
21.96
20
2.98
0
VERTEX
8
1
10
21.96
20
3.10
0
VERTEX
8
1
10
21.96
20
3.22
0
VERTEX
8
1
10
21.95
20
3.34
0
VERTEX
8
1
10
21.94
20
3.46
0
VERTEX
8
1
10
21.93
20
3.58
0
VERTEX
8
1
10
21.92
20
3.69
0
VERTEX
8
1
10
21.91
20
3.81
0
VERTEX
8
1
10
21.90
20
3.92
0
VERTEX
8
1
10
21.88
20
4.04
0
VERTEX
8
1
10
21.87
20
4.15
0
VERTEX
8
1
10
21.85
20
4.26
0
VERTEX
8
1
10
21.83
20
4.37
0
VERTEX
8
1
10
21.80
20
4.48
0
VERTEX
8
1
10
21.78
20
4.59
0
VERTEX
8
1
10
21.75
20
4.69
0
VERTEX
8
1
10
21.73
20
4.80
0
VERTEX
8
1
10
21.70
20
4.90
0
VERTEX
8
1
10
21.66
20
5.00
0
VERTEX
8
1
10
21.63
20
5.10
0
VERTEX
8
1
10
21.60
20
5.20
0
VERTEX
8
1
10
21.56
20
5.30
0
VERTEX
8
1
10
21.52
20
5.40
0
VERTEX
8
1
10
21.48
20
5.49
0
VERTEX
8
1
10
21.44
20
5.58
0
VERTEX
8
1
10
21.39
20
5.67
0
VERTEX
8
1
10
21.35
20
5.76
0
VERTEX
8
1
10
21.30
20
5.85
0
VERTEX
8
1
10
21.24
20
5.93
0
VERTEX
8
1
10
21.19
20
6.01
0
VERTEX
8
1
10
21.13
20
6.09
0
VERTEX
8
1
10
21.07
20
6.16
0
VERTEX
8
1
10
21.00
20
6.22
0
VERTEX
8
1
10
20.93
20
6.29
0
VERTEX
8
1
10
20.86
20
6.36
0
VERTEX
8
1
10
20.79
20
6.42
0
VERTEX
8
1
10
20.72
20
6.49
0
VERTEX
8
1
10
20.65
20
6.56
0
VERTEX
8
1
10
20.59
20
6.62
0
VERTEX
8
1
10
20.52
20
6.69
0
VERTEX
8
1
10
20.45
20
6.76
0
VERTEX
8
1
10
20.38
20
6.82
0
VERTEX
8
1
10
20.31
20
6.89
0
VERTEX
8
1
10
20.24
20
6.95
0
VERTEX
8
1
10
20.18
20
7.02
0
VERTEX
8
1
10
20.11
20
7.09
0
VERTEX
8
1
10
20.04
20
7.15
0
VERTEX
8
1
10
19.97
20
7.22
0
VERTEX
8
1
10
19.90
20
7.29
0
VERTEX
8
1
10
19.83
20
7.35
0
VERTEX
8
1
10
19.76
20
7.42
0
VERTEX
8
1
10
21.22
20
9.42
0
VERTEX
8
1
10
21.30
20
9.38
0
VERTEX
8
1
10
21.39
20
9.33
0
VERTEX
8
1
10
21.47
20
9.29
0
VERTEX
8
1
10
21.56
20
9.24
0
VERTEX
8
1
10
21.64
20
9.20
0
VERTEX
8
1
10
21.72
20
9.15
0
VERTEX
8
1
10
21.81
20
9.11
0
VERTEX
8
1
10
21.89
20
9.06
0
VERTEX
8
1
10
21.98
20
9.02
0
VERTEX
8
1
10
22.06
20
8.98
0
VERTEX
8
1
10
22.15
20
8.93
0
VERTEX
8
1
10
22.23
20
8.89
0
VERTEX
8
1
10
22.32
20
8.84
0
VERTEX
8
1
10
22.40
20
8.80
0
VERTEX
8
1
10
22.48
20
8.75
0
VERTEX
8
1
10
22.57
20
8.71
0
VERTEX
8
1
10
22.65
20
8.66
0
VERTEX
8
1
10
22.74
20
8.62
0
VERTEX
8
1
10
22.82
20
8.57
0
VERTEX
8
1
10
22.91
20
8.53
0
VERTEX
8
1
10
23.00
20
8.50
0
VERTEX
8
1
10
23.09
20
8.47
0
VERTEX
8
1
10
23.19
20
8.45
0
VERTEX
8
1
10
23.28
20
8.43
0
VERTEX
8
1
10
23.38
20
8.41
0
VERTEX
8
1
10
23.48
20
8.40
0
VERTEX
8
1
10
23.58
20
8.39
0
VERTEX
8
1
10
23.68
20
8.38
0
VERTEX
8
1
10
23.79
20
8.37
0
VERTEX
8
1
10
23.89
20
8.36
0
VERTEX
8
1
10
24.00
20
8.36
0
VERTEX
8
1
10
24.10
20
8.36
0
VERTEX
8
1
10
24.21
20
8.36
0
VERTEX
8
1
10
24.32
20
8.37
0
VERTEX
8
1
10
24.43
20
8.37
0
VERTEX
8
1
10
24.53
20
8.38
0
VERTEX
8
1
10
24.64
20
8.39
0
VERTEX
8
1
10
24.75
20
8.40
0
VERTEX
8
1
10
24.87
20
8.42
0
VERTEX
8
1
10
24.98
20
8.43
0
VERTEX
8
1
10
25.09
20
8.45
0
VERTEX
8
1
10
25.20
20
8.47
0
VERTEX
8
1
10
25.32
20
8.49
0
VERTEX
8
1
10
25.43
20
8.52
0
VERTEX
8
1
10
25.54
20
8.54
0
VERTEX
8
1
10
25.66
20
8.57
0
VERTEX
8
1
10
25.77
20
8.60
0
VERTEX
8
1
10
25.89
20
8.63
0
VERTEX
8
1
10
26.00
20
8.67
0
VERTEX
8
1
10
26.12
20
8.70
0
VERTEX
8
1
10
26.53
20
9.96
0
VERTEX
8
1
10
26.46
20
10.06
0
VERTEX
8
1
10
26.38
20
10.15
0
VERTEX
8
1
10
26.31
20
10.25
0
VERTEX
8
1
10
26.23
20
10.34
0
VERTEX
8
1
10
26.16
20
10.43
0
VERTEX
8
1
10
26.08
20
10.52
0
VERTEX
8
1
10
26.00
20
10.60
0
VERTEX
8
1
10
25.92
20
10.69
0
VERTEX
8
1
10
25.84
20
10.77
0
VERTEX
8
1
10
25.76
20
10.85
0
VERTEX
8
1
10
25.68
20
10.93
0
VERTEX
8
1
10
25.60
20
11.01
0
VERTEX
8
1
10
25.52
20
11.08
0
VERTEX
8
1
10
25.44
20
11.16
0
VERTEX
8
1
10
25.35
20
11.23
0
VERTEX
8
1
10
25.27
20
11.29
0
VERTEX
8
1
10
25.18
20
11.36
0
VERTEX
8
1
10
25.10
20
11.43
0
VERTEX
8
1
10
25.01
20
11.49
0
VERTEX
8
1
10
24.93
20
11.55
0
VERTEX
8
1
10
24.84
20
11.60
0
VERTEX
8
1
10
24.75
20
11.66
0
VERTEX
8
1
10
24.66
20
11.71
0
VERTEX
8
1
10
24.57
20
11.76
0
VERTEX
8
1
10
24.49
20
11.81
0
VERTEX
8
1
10
24.40
20
11.85
0
VERTEX
8
1
10
24.31
20
11.89
0
VERTEX
8
1
10
24.21
20
11.93
0
VERTEX
8
1
10
24.12
20
11.96
0
VERTEX
8
1
10
24.03
20
11.99
0
VERTEX
8
1
10
23.94
20
12.01
0
VERTEX
8
1
10
23.84
20
12.02
0
VERTEX
8
1
10
23.75
20
12.03
0
VERTEX
8
1
10
23.65
20
12.05
0
VERTEX
8
1
10
23.56
20
12.06
0
VERTEX
8
1
10
23.46
20
12.07
0
VERTEX
8
1
10
23.37
20
12.09
0
VERTEX
8
1
10
23.28
20
12.10
0
VERTEX
8
1
10
23.18
20
12.11
0
VERTEX
8
1
10
23.09
20
12.13
0
VERTEX
8
1
10
22.99
20
12.14
0
VERTEX
8
1
10
22.90
20
12.15
0
VERTEX
8
1
10
22.80
20
12.17
0
VERTEX
8
1
10
22.71
20
12.18
0
VERTEX
8
1
10
22.61
20
12.20
0
VERTEX
8
1
10
22.52
20
12.21
0
VERTEX
8
1
10
22.43
20
12.22
0
VERTEX
8
1
10
22.33
20
12.24
0
VERTEX
8
1
10
22.24
20
12.25
0
VERTEX
8
1
10
22.14
20
12.26
0
VERTEX
8
1
10
22.14
20
14.74
0
VERTEX
8
1
10
22.24
20
14.75
0
VERTEX
8
1
10
22.33
20
14.76
0
VERTEX
8
1
10
22.43
20
14.78
0
VERTEX
8
1
10
22.52
20
14.79
0
VERTEX
8
1
10
22.61
20
14.80
0
VERTEX
8
1
10
22.71
20
14.82
0
VERTEX
8
1
10
22.80
20
14.83
0
VERTEX
8
1
10
22.90
20
14.85
0
VERTEX
8
1
10
22.99
20
14.86
0
VERTEX
8
1
10
23.09
20
14.87
0
VERTEX
8
1
10
23.18
20
14.89
0
VERTEX
8
1
10
23.28
20
14.90
0
VERTEX
8
1
10
23.37
20
14.91
0
VERTEX
8
1
10
23.46
20
14.93
0
VERTEX
8
1
10
23.56
20
14.94
0
VERTEX
8
1
10
23.65
20
14.95
0
VERTEX
8
1
10
23.75
20
14.97
0
VERTEX
8
1
10
23.84
20
14.98
0
VERTEX
8
1
10
23.94
20
14.99
0
VERTEX
8
1
10
24.03
20
15.01
0
VERTEX
8
1
10
24.12
20
15.04
0
VERTEX
8
1
10
24.21
20
15.07
0
VERTEX
8
1
10
24.31
20
15.11
0
VERTEX
8
1
10
24.40
20
15.15
0
VERTEX
8
1
10
24.49
20
15.19
0
VERTEX
8
1
10
24.57
20
15.24
0
VERTEX
8
1
10
24.66
20
15.29
0
VERTEX
8
1
10
24.75
20
15.34
0
VERTEX
8
1
10
24.84
20
15.40
0
VERTEX
8
1
10
24.93
20
15.45
0
VERTEX
8
1
10
25.01
20
15.51
0
VERTEX
8
1
10
25.10
20
15.57
0
VERTEX
8
1
10
25.18
20
15.64
0
VERTEX
8
1
10
25.27
20
15.71
0
VERTEX
8
1
10
25.35
20
15.77
0
VERTEX
8
1
10
25.44
20
15.84
0
VERTEX
8
1
10
25.52
20
15.92
0
VERTEX
8
1
10
25.60
20
15.99
0
VERTEX
8
1
10
25.68
20
16.07
0
VERTEX
8
1
10
25.76
20
16.15
0
VERTEX
8
1
10
25.84
20
16.23
0
VERTEX
8
1
10
25.92
20
16.31
0
VERTEX
8
1
10
26.00
20
16.40
0
VERTEX
8
1
10
26.08
20
16.48
0
VERTEX
8
1
10
26.16
20
16.57
0
VERTEX
8
1
10
26.23
20
16.66
0
VERTEX
8
1
10
26.31
20
16.75
0
VERTEX
8
1
10
26.38
20
16.85
0
VERTEX
8
1
10
26.46
20
16.94
0
VERTEX
8
1
10
26.53
20
17.04
0
VERTEX
8
1
10
26.12
20
18.30
0
VERTEX
8
1
10
26.00
20
18.33
0
VERTEX
8
1
10
25.89
20
18.37
0
VERTEX
8
1
10
25.77
20
18.40
0
VERTEX
8
1
10
25.66
20
18.43
0
VERTEX
8
1
10
25.54
20
18.46
0
VERTEX
8
1
10
25.43
20
18.48
0
VERTEX
8
1
10
25.32
20
18.51
0
VERTEX
8
1
10
25.20
20
18.53
0
VERTEX
8
1
10
25.09
20
18.55
0
VERTEX
8
1
10
24.98
20
18.57
0
VERTEX
8
1
10
24.87
20
18.58
0
VERTEX
8
1
10
24.75
20
18.60
0
VERTEX
8
1
10
24.64
20
18.61
0
VERTEX
8
1
10
24.53
20
18.62
0
VERTEX
8
1
10
24.43
20
18.63
0
VERTEX
8
1
10
24.32
20
18.63
0
VERTEX
8
1
10
24.21
20
18.64
0
VERTEX
8
1
10
24.10
20
18.64
0
VERTEX
8
1
10
24.00
20
18.64
0
VERTEX
8
1
10
23.89
20
18.64
0
VERTEX
8
1
10
23.79
20
18.63
0
VERTEX
8
1
10
23.68
20
18.62
0
VERTEX
8
1
10
23.58
20
18.61
0
VERTEX
8
1
10
23.48
20
18.60
0
VERTEX
8
1
10
23.38
20
18.59
0
VERTEX
8
1
10
23.28
20
18.57
0
VERTEX
8
1
10
23.19
20
18.55
0
VERTEX
8
1
10
23.09
20
18.53
0
VERTEX
8
1
10
23.00
20
18.50
0
VERTEX
8
1
10
22.91
20
18.47
0
VERTEX
8
1
10
22.82
20
18.43
0
VERTEX
8
1
10
22.74
20
18.38
0
VERTEX
8
1
10
22.65
20
18.34
0
VERTEX
8
1
10
22.57
20
18.29
0
VERTEX
8
1
10
22.48
20
18.25
0
VERTEX
8
1
10
22.40
20
18.20
0
VERTEX
8
1
10
22.32
20
18.16
0
VERTEX
8
1
10
22.23
20
18.11
0
VERTEX
8
1
10
22.15
20
18.07
0
VERTEX
8
1
10
22.06
20
18.02
0
VERTEX
8
1
10
21.98
20
17.98
0
VERTEX
8
1
10
21.89
20
17.94
0
VERTEX
8
1
10
21.81
20
17.89
0
VERTEX
8
1
10
21.72
20
17.85
0
VERTEX
8
1
10
21.64
20
17.80
0
VERTEX
8
1
10
21.56
20
17.76
0
VERTEX
8
1
10
21.47
20
17.71
0
VERTEX
8
1
10
21.39
20
17.67
0
VERTEX
8
1
10
21.30
20
17.62
0
VERTEX
8
1
10
21.22
20
17.58
0
VERTEX
8
1
10
19.76
20
19.58
0
VERTEX
8
1
10
19.83
20
19.65
0
VERTEX
8
1
10
19.90
20
19.71
0
VERTEX
8
1
10
19.97
20
19.78
0
VERTEX
8
1
10
20.04
20
19.85
0
VERTEX
8
1
10
20.11
20
19.91
0
VERTEX
8
1
10
20.18
20
19.98
0
VERTEX
8
1
10
20.24
20
20.05
0
VERTEX
8
1
10
20.31
20
20.11
0
VERTEX
8
1
10
20.38
20
20.18
0
VERTEX
8
1
10
20.45
20
20.24
0
VERTEX
8
1
10
20.52
20
20.31
0
VERTEX
8
1
10
20.59
20
20.38
0
VERTEX
8
1
10
20.65
20
20.44
0
VERTEX
8
1
10
20.72
20
20.51
0
VERTEX
8
1
10
20.79
20
20.58
0
VERTEX
8
1
10
20.86
20
20.64
0
VERTEX
8
1
10
20.93
20
20.71
0
VERTEX
8
1
10
21.00
20
20.78
0
VERTEX
8
1
10
21.07
20
20.84
0
VERTEX
8
1
10
21.13
20
20.91
0
VERTEX
8
1
10
21.19
20
20.99
0
VERTEX
8
1
10
21.24
20
21.07
0
VERTEX
8
1
10
21.30
20
21.15
0
VERTEX
8
1
10
21.35
20
21.24
0
VERTEX
8
1
10
21.39
20
21.33
0
VERTEX
8
1
10
21.44
20
21.42
0
VERTEX
8
1
10
21.48
20
21.51
0
VERTEX
8
1
10
21.52
20
21.60
0
VERTEX
8
1
10
21.56
20
21.70
0
VERTEX
8
1
10
21.60
20
21.80
0
VERTEX
8
1
10
21.63
20
21.90
0
VERTEX
8
1
10
21.66
20
22.00
0
VERTEX
8
1
10
21.70
20
22.10
0
VERTEX
8
1
10
21.73
20
22.20
0
VERTEX
8
1
10
21.75
20
22.31
0
VERTEX
8
1
10
21.78
20
22.41
0
VERTEX
8
1
10
21.80
20
22.52
0
VERTEX
8
1
10
21.83
20
22.63
0
VERTEX
8
1
10
21.85
20
22.74
0
VERTEX
8
1
10
21.87
20
22.85
0
VERTEX
8
1
10
21.88
20
22.96
0
VERTEX
8
1
10
21.90
20
23.08
0
VERTEX
8
1
10
21.91
20
23.19
0
VERTEX
8
1
10
21.92
20
23.31
0
VERTEX
8
1
10
21.93
20
23.42
0
VERTEX
8
1
10
21.94
20
23.54
0
VERTEX
8
1
10
21.95
20
23.66
0
VERTEX
8
1
10
21.96
20
23.78
0
VERTEX
8
1
10
21.96
20
23.90
0
VERTEX
8
1
10
21.96
20
24.02
0
VERTEX
8
1
10
20.89
20
24.80
0
VERTEX
8
1
10
20.78
20
24.76
0
VERTEX
8
1
10
20.66
20
24.72
0
VERTEX
8
1
10
20.55
20
24.68
0
VERTEX
8
1
10
20.44
20
24.63
0
VERTEX
8
1
10
20.33
20
24.59
0
VERTEX
8
1
10
20.22
20
24.54
0
VERTEX
8
1
10
20.12
20
24.49
0
VERTEX
8
1
10
20.01
20
24.45
0
VERTEX
8
1
10
19.91
20
24.40
0
VERTEX
8
1
10
19.81
20
24.35
0
VERTEX
8
1
10
19.71
20
24.29
0
VERTEX
8
1
10
19.61
20
24.24
0
VERTEX
8
1
10
19.51
20
24.18
0
VERTEX
8
1
10
19.42
20
24.13
0
VERTEX
8
1
10
19.33
20
24.07
0
VERTEX
8
1
10
19.23
20
24.01
0
VERTEX
8
1
10
19.14
20
23.95
0
VERTEX
8
1
10
19.06
20
23.89
0
VERTEX
8
1
10
18.97
20
23.83
0
VERTEX
8
1
10
18.89
20
23.76
0
VERTEX
8
1
10
18.81
20
23.70
0
VERTEX
8
1
10
18.73
20
23.63
0
VERTEX
8
1
10
18.65
20
23.56
0
VERTEX
8
1
10
18.58
20
23.49
0
VERTEX
8
1
10
18.50
20
23.42
0
VERTEX
8
1
10
18.44
20
23.35
0
VERTEX
8
1
10
18.37
20
23.28
0
VERTEX
8
1
10
18.31
20
23.20
0
VERTEX
8
1
10
18.25
20
23.13
0
VERTEX
8
1
10
18.19
20
23.05
0
VERTEX
8
1
10
18.15
20
22.96
0
VERTEX
8
1
10
18.10
20
22.88
0
VERTEX
8
1
10
18.06
20
22.79
0
VERTEX
8
1
10
18.02
20
22.71
0
VERTEX
8
1
10
17.98
20
22.62
0
VERTEX
8
1
10
17.94
20
22.54
0
VERTEX
8
1
10
17.89
20
22.45
0
VERTEX
8
1
10
17.85
20
22.36
0
VERTEX
8
1
10
17.81
20
22.28
0
VERTEX
8
1
10
17.77
20
22.19
0
VERTEX
8
1
10
17.73
20
22.11
0
VERTEX
8
1
10
17.68
20
22.02
0
VERTEX
8
1
10
17.64
20
21.94
0
VERTEX
8
1
10
17.60
20
21.85
0
VERTEX
8
1
10
17.56
20
21.76
0
VERTEX
8
1
10
17.52
20
21.68
0
VERTEX
8
1
10
17.47
20
21.59
0
VERTEX
8
1
10
17.43
20
21.51
0
VERTEX
8
1
10
17.39
20
21.42
0
VERTEX
8
1
10
17.35
20
21.34
0
VERTEX
8
1
10
14.99
20
22.10
0
SEQEND
0
POLYLINE
8
1
66
1
70
0
0
VERTEX
8
1
10
13.50
20
16.00
0
VERTEX
8
1
10
13.72
20
15.99
0
VERTEX
8
1
10
13.93
20
15.96
0
VERTEX
8
1
10
14.15
20
15.91
0
VERTEX
8
1
10
14.36
20
15.85
0
VERTEX
8
1
10
14.56
20
15.77
0
VERTEX
8
1
10
14.75
20
15.67
0
VERTEX
8
1
10
14.93
20
15.55
0
VERTEX
8
1
10
15.11
20
15.42
0
VERTEX
8
1
10
15.27
20
15.27
0
VERTEX
8
1
10
15.42
20
15.11
0
VERTEX
8
1
10
15.55
20
14.93
0
VERTEX
8
1
10
15.67
20
14.75
0
VERTEX
8
1
10
15.77
20
14.56
0
VERTEX
8
1
10
15.85
20
14.36
0
VERTEX
8
1
10
15.91
20
14.15
0
VERTEX
8
1
10
15.96
20
13.93
0
VERTEX
8
1
10
15.99
20
13.72
0
VERTEX
8
1
10
16.00
20
13.50
0
VERTEX
8
1
10
15.99
20
13.28
0
VERTEX
8
1
10
15.96
20
13.07
0
VERTEX
8
1
10
15.91
20
12.85
0
VERTEX
8
1
10
15.85
20
12.64
0
VERTEX
8
1
10
15.77
20
12.44
0
VERTEX
8
1
10
15.67
20
12.25
0
VERTEX
8
1
10
15.55
20
12.07
0
VERTEX
8
1
10
15.42
20
11.89
0
VERTEX
8
1
10
15.27
20
11.73
0
VERTEX
8
1
10
15.11
20
11.58
0
VERTEX
8
1
10
14.93
20
11.45
0
VERTEX
8
1
10
14.75
20
11.33
0
VERTEX
8
1
10
14.56
20
11.23
0
VERTEX
8
1
10
14.36
20
11.15
0
VERTEX
8
1
10
14.15
20
11.09
0
VERTEX
8
1
10
13.93
20
11.04
0
VERTEX
8
1
10
13.72
20
11.01
0
VERTEX
8
1
10
13.50
20
11.00
0
VERTEX
8
1
10
13.28
20
11.01
0
VERTEX
8
1
10
13.07
20
11.04
0
VERTEX
8
1
10
12.85
20
11.09
0
VERTEX
8
1
10
12.64
20
11.15
0
VERTEX
8
1
10
12.44
20
11.23
0
VERTEX
8
1
10
12.25
20
11.33
0
VERTEX
8
1
10
12.07
20
11.45
0
VERTEX
8
1
10
11.89
20
11.58
0
VERTEX
8
1
10
11.73
20
11.73
0
VERTEX
8
1
10
11.58
20
11.89
0
VERTEX
8
1
10
11.45
20
12.07
0
VERTEX
8
1
10
11.33
20
12.25
0
VERTEX
8
1
10
11.23
20
12.44
0
VERTEX
8
1
10
11.15
20
12.64
0
VERTEX
8
1
10
11.09
20
12.85
0
VERTEX
8
1
10
11.04
20
13.07
0
VERTEX
8
1
10
11.01
20
13.28
0
VERTEX
8
1
10
11.00
20
13.50
0
VERTEX
8
1
10
11.01
20
13.72
0
VERTEX
8
1
10
11.04
20
13.93
0
VERTEX
8
1
10
11.09
20
14.15
0
VERTEX
8
1
10
11.15
20
14.36
0
VERTEX
8
1
10
11.23
20
14.56
0
VERTEX
8
1
10
11.33
20
14.75
0
VERTEX
8
1
10
11.45
20
14.93
0
VERTEX
8
1
10
11.58
20
15.11
0
VERTEX
8
1
10
11.73
20
15.27
0
VERTEX
8
1
10
11.89
20
15.42
0
VERTEX
8
1
10
12.07
20
15.55
0
VERTEX
8
1
10
12.25
20
15.67
0
VERTEX
8
1
10
12.44
20
15.77
0
VERTEX
8
1
10
12.64
20
15.85
0
VERTEX
8
1
10
12.85
20
15.91
0
VERTEX
8
1
10
13.07
20
15.96
0
VERTEX
8
1
10
13.28
20
15.99
0
VERTEX
8
1
10
13.50
20
16.00
0
VERTEX
8
1
10
13.50
20
16.00
0
SEQEND
0
POLYLINE
8
1
66
1
70
0
0
VERTEX
8
1
10
31.50
20
4.50
0
VERTEX
8
1
10
32.45
20
4.50
0
VERTEX
8
1
10
34.08
20
0.02
0
VERTEX
8
1
10
35.99
20
0.02
0
VERTEX
8
1
10
37.62
20
4.50
0
VERTEX
8
1
10
38.57
20
4.50
0
VERTEX
8
1
10
39.52
20
4.50
0
VERTEX
8
1
10
41.15
20
0.02
0
VERTEX
8
1
10
43.05
20
0.02
0
VERTEX
8
1
10
44.69
20
4.50
0
VERTEX
8
1
10
45.64
20
4.50
0
VERTEX
8
1
10
46.59
20
4.50
0
VERTEX
8
1
10
48.22
20
0.02
0
VERTEX
8
1
10
50.12
20
0.02
0
VERTEX
8
1
10
51.75
20
4.50
0
VERTEX
8
1
10
52.71
20
4.50
0
VERTEX
8
1
10
53.66
20
4.50
0
VERTEX
8
1
10
55.29
20
0.02
0
VERTEX
8
1
10
57.19
20
0.02
0
VERTEX
8
1
10
58.82
20
4.50
0
VERTEX
8
1
10
59.77
20
4.50
0
VERTEX
8
1
10
60.73
20
4.50
0
VERTEX
8
1
10
62.36
20
0.02
0
VERTEX
8
1
10
64.26
20
0.02
0
VERTEX
8
1
10
65.89
20
4.50
0
VERTEX
8
1
10
66.84
20
4.50
0
VERTEX
8
1
10
67.79
20
4.50
0
VERTEX
8
1
10
69.43
20
0.02
0
VERTEX
8
1
10
71.33
20
0.02
0
VERTEX
8
1
10
72.96
20
4.50
0
VERTEX
8
1
10
73.91
20
4.50
0
VERTEX
8
1
10
74.86
20
4.50
0
VERTEX
8
1
10
76.49
20
0.02
0
VERTEX
8
1
10
78.40
20
0.02
0
VERTEX
8
1
10
80.03
20
4.50
0
VERTEX
8
1
10
80.98
20
4.50
0
VERTEX
8
1
10
81.93
20
4.50
0
VERTEX
8
1
10
83.56
20
0.02
0
VERTEX
8
1
10
85.47
20
0.02
0
VERTEX
8
1
10
87.10
20
4.50
0
VERTEX
8
1
10
88.05
20
4.50
0
VERTEX
8
1
10
89.00
20
4.50
0
VERTEX
8
1
10
90.63
20
0.02
0
VERTEX
8
1
10
92.53
20
0.02
0
VERTEX
8
1
10
94.17
20
4.50
0
VERTEX
8
1
10
95.12
20
4.50
0
VERTEX
8
1
10
96.07
20
4.50
0
VERTEX
8
1
10
97.70
20
0.02
0
VERTEX
8
1
10
99.60
20
0.02
0
VERTEX
8
1
10
101.23
20
4.50
0
VERTEX
8
1
10
102.19
20
4.50
0
VERTEX
8
1
10
103.14
20
4.50
0
VERTEX
8
1
10
104.77
20
0.02
0
VERTEX
8
1
10
106.67
20
0.02
0
VERTEX
8
1
10
108.30
20
4.50
0
VERTEX
8
1
10
109.25
20
4.50
0
VERTEX
8
1
10
110.21
20
4.50
0
VERTEX
8
1
10
111.84
20
0.02
0
VERTEX
8
1
10
113.74
20
0.02
0
VERTEX
8
1
10
115.37
20
4.50
0
VERTEX
8
1
10
116.32
20
4.50
0
VERTEX
8
1
10
117.27
20
4.50
0
VERTEX
8
1
10
118.91
20
0.02
0
VERTEX
8
1
10
120.81
20
0.02
0
VERTEX
8
1
10
122.44
20
4.50
0
VERTEX
8
1
10
123.39
20
4.50
0
VERTEX
8
1
10
124.34
20
4.50
0
VERTEX
8
1
10
125.97
20
0.02
0
VERTEX
8
1
10
127.88
20
0.02
0
VERTEX
8
1
10
129.51
20
4.50
0
VERTEX
8
1
10
130.46
20
4.50
0
VERTEX
8
1
10
131.41
20
4.50
0
VERTEX
8
1
10
133.04
20
0.02
0
VERTEX
8
1
10
134.95
20
0.02
0
VERTEX
8
1
10
136.58
20
4.50
0
VERTEX
8
1
10
137.53
20
4.50
0
VERTEX
8
1
10
138.48
20
4.50
0
VERTEX
8
1
10
140.11
20
0.02
0
VERTEX
8
1
10
142.01
20
0.02
0
VERTEX
8
1
10
143.65
20
4.50
0
VERTEX
8
1
10
144.60
20
4.50
0
VERTEX
8
1
10
145.55
20
4.50
0
VERTEX
8
1
10
147.18
20
0.02
0
VERTEX
8
1
10
149.08
20
0.02
0
VERTEX
8
1
10
150.71
20
4.50
0
VERTEX
8
1
10
151.67
20
4.50
0
VERTEX
8
1
10
152.62
20
4.50
0
VERTEX
8
1
10
154.25
20
0.02
0
VERTEX
8
1
10
156.15
20
0.02
0
VERTEX
8
1
10
157.78
20
4.50
0
VERTEX
8
1
10
158.73
20
4.50
0
VERTEX
8
1
10
159.69
20
4.50
0
VERTEX
8
1
10
161.32
20
0.02
0
VERTEX
8
1
10
163.22
20
0.02
0
VERTEX
8
1
10
164.85
20
4.50
0
VERTEX
8
1
10
165.80
20
4.50
0
VERTEX
8
1
10
166.75
20
4.50
0
VERTEX
8
1
10
168.39
20
0.02
0
VERTEX
8
1
10
170.29
20
0.02
0
VERTEX
8
1
10
171.92
20
4.50
0
VERTEX
8
1
10
172.87
20
4.50
0
VERTEX
8
1
10
173.82
20
4.50
0
VERTEX
8
1
10
175.45
20
0.02
0
VERTEX
8
1
10
177.36
20
0.02
0
VERTEX
8
1
10
178.99
20
4.50
0
VERTEX
8
1
10
179.94
20
4.50
0
VERTEX
8
1
10
180.89
20
4.50
0
VERTEX
8
1
10
182.52
20
0.02
0
VERTEX
8
1
10
184.43
20
0.02
0
VERTEX
8
1
10
186.06
20
4.50
0
VERTEX
8
1
10
187.01
20
4.50
0
VERTEX
8
1
10
187.96
20
4.50
0
VERTEX
8
1
10
189.59
20
0.02
0
VERTEX
8
1
10
191.49
20
0.02
0
VERTEX
8
1
10
193.13
20
4.50
0
VERTEX
8
1
10
194.08
20
4.50
0
VERTEX
8
1
10
195.03
20
4.50
0
VERTEX
8
1
10
196.66
20
0.02
0
VERTEX
8
1
10
198.56
20
0.02
0
VERTEX
8
1
10
200.19
20
4.50
0
VERTEX
8
1
10
201.15
20
4.50
0
VERTEX
8
1
10
202.10
20
4.50
0
VERTEX
8
1
10
203.73
20
0.02
0
VERTEX
8
1
10
205.63
20
0.02
0
VERTEX
8
1
10
207.26
20
4.50
0
VERTEX
8
1
10
208.21
20
4.50
0
VERTEX
8
1
10
209.17
20
4.50
0
VERTEX
8
1
10
210.80
20
0.02
0
VERTEX
8
1
10
212.70
20
0.02
0
VERTEX
8
1
10
214.33
20
4.50
0
VERTEX
8
1
10
215.28
20
4.50
0
VERTEX
8
1
10
216.23
20
4.50
0
VERTEX
8
1
10
217.87
20
0.02
0
VERTEX
8
1
10
219.77
20
0.02
0
VERTEX
8
1
10
221.40
20
4.50
0
VERTEX
8
1
10
222.35
20
4.50
0
VERTEX
8
1
10
223.30
20
4.50
0
VERTEX
8
1
10
224.93
20
0.02
0
VERTEX
8
1
10
226.84
20
0.02
0
VERTEX
8
1
10
228.47
20
4.50
0
VERTEX
8
1
10
229.42
20
4.50
0
VERTEX
8
1
10
230.37
20
4.50
0
VERTEX
8
1
10
232.00
20
0.02
0
VERTEX
8
1
10
233.91
20
0.02
0
VERTEX
8
1
10
235.54
20
4.50
0
VERTEX
8
1
10
236.49
20
4.50
0
VERTEX
8
1
10
237.44
20
4.50
0
VERTEX
8
1
10
239.07
20
0.02
0
VERTEX
8
1
10
240.97
20
0.02
0
VERTEX
8
1
10
242.61
20
4.50
0
VERTEX
8
1
10
243.56
20
4.50
0
VERTEX
8
1
10
244.51
20
4.50
0
VERTEX
8
1
10
246.14
20
0.02
0
VERTEX
8
1
10
248.04
20
0.02
0
VERTEX
8
1
10
249.67
20
4.50
0
VERTEX
8
1
10
250.63
20
4.50
0
VERTEX
8
1
10
251.58
20
4.50
0
VERTEX
8
1
10
253.21
20
0.02
0
VERTEX
8
1
10
255.11
20
0.02
0
VERTEX
8
1
10
256.74
20
4.50
0
VERTEX
8
1
10
257.69
20
4.50
0
VERTEX
8
1
10
258.65
20
4.50
0
VERTEX
8
1
10
260.28
20
0.02
0
VERTEX
8
1
10
262.18
20
0.02
0
VERTEX
8
1
10
263.81
20
4.50
0
VERTEX
8
1
10
264.76
20
4.50
0
VERTEX
8
1
10
265.71
20
4.50
0
VERTEX
8
1
10
267.35
20
0.02
0
VERTEX
8
1
10
269.25
20
0.02
0
VERTEX
8
1
10
270.88
20
4.50
0
VERTEX
8
1
10
271.83
20
4.50
0
VERTEX
8
1
10
272.78
20
4.50
0
VERTEX
8
1
10
274.41
20
0.02
0
VERTEX
8
1
10
276.32
20
0.02
0
VERTEX
8
1
10
277.95
20
4.50
0
VERTEX
8
1
10
278.90
20
4.50
0
VERTEX
8
1
10
279.85
20
4.50
0
VERTEX
8
1
10
281.48
20
0.02
0
VERTEX
8
1
10
283.39
20
0.02
0
VERTEX
8
1
10
285.02
20
4.50
0
VERTEX
8
1
10
285.97
20
4.50
0
VERTEX
8
1
10
286.92
20
4.50
0
VERTEX
8
1
10
288.55
20
0.02
0
VERTEX
8
1
10
290.45
20
0.02
0
VERTEX
8
1
10
292.09
20
4.50
0
VERTEX
8
1
10
293.04
20
4.50
0
VERTEX
8
1
10
293.99
20
4.50
0
VERTEX
8
1
10
295.62
20
0.02
0
VERTEX
8
1
10
297.52
20
0.02
0
VERTEX
8
1
10
299.15
20
4.50
0
VERTEX
8
1
10
300.11
20
4.50
0
VERTEX
8
1
10
301.06
20
4.50
0
VERTEX
8
1
10
302.69
20
0.02
0
VERTEX
8
1
10
304.59
20
0.02
0
VERTEX
8
1
10
306.22
20
4.50
0
VERTEX
8
1
10
307.17
20
4.50
0
VERTEX
8
1
10
308.13
20
4.50
0
VERTEX
8
1
10
309.76
20
0.02
0
VERTEX
8
1
10
311.66
20
0.02
0
VERTEX
8
1
10
313.29
20
4.50
0
VERTEX
8
1
10
314.24
20
4.50
0
VERTEX
8
1
10
315.19
20
4.50
0
VERTEX
8
1
10
316.83
20
0.02
0
VERTEX
8
1
10
318.73
20
0.02
0
VERTEX
8
1
10
320.36
20
4.50
0
VERTEX
8
1
10
321.31
20
4.50
0
VERTEX
8
1
10
322.26
20
4.50
0
VERTEX
8
1
10
323.89
20
0.02
0
VERTEX
8
1
10
325.80
20
0.02
0
VERTEX
8
1
10
327.43
20
4.50
0
VERTEX
8
1
10
328.38
20
4.50
0
VERTEX
8
1
10
329.33
20
4.50
0
VERTEX
8
1
10
330.96
20
0.02
0
VERTEX
8
1
10
332.87
20
0.02
0
VERTEX
8
1
10
334.50
20
4.50
0
VERTEX
8
1
10
335.45
20
4.50
0
VERTEX
8
1
10
336.40
20
4.50
0
VERTEX
8
1
10
338.03
20
0.02
0
VERTEX
8
1
10
339.93
20
0.02
0
VERTEX
8
1
10
341.57
20
4.50
0
VERTEX
8
1
10
342.52
20
4.50
0
VERTEX
8
1
10
343.47
20
4.50
0
VERTEX
8
1
10
345.10
20
0.02
0
VERTEX
8
1
10
347.00
20
0.02
0
VERTEX
8
1
10
348.63
20
4.50
0
VERTEX
8
1
10
349.59
20
4.50
0
VERTEX
8
1
10
350.54
20
4.50
0
VERTEX
8
1
10
352.17
20
0.02
0
VERTEX
8
1
10
354.07
20
0.02
0
VERTEX
8
1
10
355.70
20
4.50
0
VERTEX
8
1
10
356.65
20
4.50
0
VERTEX
8
1
10
357.61
20
4.50
0
VERTEX
8
1
10
359.24
20
0.02
0
VERTEX
8
1
10
361.14
20
0.02
0
VERTEX
8
1
10
362.77
20
4.50
0
VERTEX
8
1
10
363.72
20
4.50
0
VERTEX
8
1
10
364.67
20
4.50
0
VERTEX
8
1
10
366.31
20
0.02
0
VERTEX
8
1
10
368.21
20
0.02
0
VERTEX
8
1
10
369.84
20
4.50
0
VERTEX
8
1
10
370.79
20
4.50
0
VERTEX
8
1
10
371.74
20
4.50
0
VERTEX
8
1
10
373.37
20
0.02
0
VERTEX
8
1
10
375.28
20
0.02
0
VERTEX
8
1
10
376.91
20
4.50
0
VERTEX
8
1
10
377.86
20
4.50
0
VERTEX
8
1
10
378.81
20
4.50
0
VERTEX
8
1
10
380.44
20
0.02
0
VERTEX
8
1
10
382.35
20
0.02
0
VERTEX
8
1
10
383.98
20
4.50
0
VERTEX
8
1
10
384.93
20
4.50
0
VERTEX
8
1
10
384.93
20
12.50
0
VERTEX
8
1
10
31.50
20
12.50
0
VERTEX
8
1
10
31.50
20
4.50
0
SEQEND
0
ENDSEC
0
EOF
